<svg xmlns="http://www.w3.org/2000/svg" version="1.1" viewBox="0 0 1440 1040" width="360" height="260">
	<path transform="translate(718,151)" d="m0 0h2l2 5 3 24 9 59 9 64 14 89 9 56 17 106 13 84 9 59 6 22 5 13 7 14 9 13 9 11 11 10 12 9 3-3 11-27 28-70 11-28 10-25 15-38 12-31 10-25 3-5h5l2 2 3 26 6 89 2 34 5 62 3 43 1 12 8-2 20-8 15-8 17-12 12-11 13-13 13-17 14-19 10-13 14-19 16-21 13-18 10-13 14-19 10-13 14-19 10-13 14-19 12-16 14-19 13-18 8-11 2-2h5l5 5-3 14-8 26-10 34-22 76-12 43-14 50-16 58-22 80-19 66-17 62-5 14-7 10-8 7-10 4-6 1-18-1-55-13-47-10-69-13-43-7-57-7-61-5-25-1h-36l-42 2-36 3-50 6-45 7-92 17-92 21-17 1-12-4-8-6-6-7-5-10-5-15-13-47-16-56-19-69-24-86-21-76-18-62-20-69-7-25-3-12 4-5 6-1 14 18 10 14 42 57 16 21 12 16 42 57 16 21 14 19 21 28 14 18 12 14 14 12 21 14 16 8 19 8h2l4-50 7-94 8-111 3-15 5-1 4 6 21 53 19 49 46 115 10 26 1 4 5-2 11-9 12-11 13-17 9-16 8-22 5-25 12-75 12-79 16-100 12-76 10-65 10-64 7-51 3-17z" fill="#AB575F"/>
	<path transform="translate(716,6)" d="m0 0h10l16 4 11 6 10 9 7 10 5 12 2 11-1 15-5 13-7 11-10 9-14 7-12 3h-10l-14-3-10-5-7-5v-2l-4-2-8-11-5-12-2-9v-10l4-16 5-10 8-10 8-6 9-5 9-3z" fill="#AB575F"/>
	<path transform="translate(1298,337)" d="m0 0h11l11 2 14 7 10 9 7 10 5 11 1 3v22l-4 13-7 11-6 7-11 7-10 4-5 1h-22l-12-4-11-7-9-9-8-14-3-12v-12l3-12 7-14 11-12 12-7 10-3z" fill="#AB575F"/>
	<path transform="translate(126,337)" d="m0 0h16l12 3 10 6 10 9 8 11 6 15 1 5v11l-3 12-6 12-11 12-10 7-11 4-15 2-13-2-10-4-11-8-9-10-7-13-2-8v-19l4-13 6-10 7-8 11-8 12-5z" fill="#AB575F"/>
	<path transform="translate(458,422)" d="m0 0h8l9 2 11 6 9 9 7 14 1 4v17l-4 11-6 8-7 7-11 5-6 2h-17l-12-5-9-7-7-10-4-9-1-4v-13l3-10 5-9 7-8 10-6 9-3z" fill="#AB575F"/>
	<path transform="translate(968,431)" d="m0 0h16l13 5 10 9 4 5 4 8 2 7 1 11-2 10-7 14-8 7-10 5-11 3h-12l-10-3-11-7-8-10-4-9-1-4v-17l4-11 6-9 9-8 8-4z" fill="#AB575F"/>
</svg>