<svg xmlns="http://www.w3.org/2000/svg" version="1.1" viewBox="0 0 1080 1080" width="500" height="300">
    <path transform="translate(93,368)" d="m0 0h80l14 3 14 7 10 9 6 10 4 11 1 6v12l-3 13-7 13-9 9-14 7-8 2-13 1h-32l1 74 3 9 4 6 10 5v4h-60v-4l10-5 5-8 1-3v-165l-3-6-6-5-8-3zm43 5v92h33l9-3 9-7 6-10 4-12 1-6v-18l-3-12-4-8-6-7-10-6-10-3z" fill="#B15962"/>
    <path transform="translate(827,368)" d="m0 0h120v59h-3l-3-23-4-15-5-9-6-5-2-1-54-1v66l43-1 4-4 4-10 2-11 1-12h3v83l-3-1-1-16-3-12-5-8-2-1-43-1v118l53-1 6-3 6-8 4-10 3-15 2-17h3v59l-1 1h-118l-1-4 10-5 5-6 2-6v-159l-3-9-5-5-9-5z" fill="#B15962"/>
    <path transform="translate(462,594)" d="m0 0h10l-3 2-13 8-16 13-14 12-13 12-37 37-7 8-12 15-3 6v3l7-1 12-7 8-7 5-6 12-9 7-3 14-12 15-15 7-8 8-8 7-5h6l-1 6-10 9-12 8-5 5-7 29-6 11-7 7 14-8 13-10 7-6 3 1-6 7-18 13-16 9-13 4-5 1h-10l-6-3-2-7-13 8-5 2h-7l-4-3-1-5 3-10-13 10-16 8h-8l-4-3v-9l2-5-8 6-14 9-9 2-5-3-1-1v-8l3-7-12 10-12 7-9 2-5-3-1-2v-7l1-5-12 9-16 8h-8l-4-4v-9l6-10 9-10 9-9 11-9 11-11 1-3-11 4-15 8-17 12-11 9-17 17-11 14-3 2-2-2v-6l7-12 11-14 12-13 12-12 10-7 5-2h8l-5 5-10 9-10 10 9-6 11-8 19-10 3-1h10l3 4-1 7-8 11-9 9-8 7-18 18-2 3-1 5 8-2 11-6 13-10 6-5 7-9 11-11 14-10 17-9 10-3h8l3 2v7l-1 3 11-8 6-2h5l-6 7-12 11-21 21-9 11-6 9v3l6-1 15-10 13-11 8-7 5-6 8-7 12-11 10-7 4-2 9-1-1 3-8 7-17 16-9 9-7 8-10 12-3 9 8-2 12-7 14-11 12-11 18-20 18-18 8-7 14-13 11-9 13-10 10-6zm-155 55-9 4-11 7-10 9-8 7-10 9-9 11-6 9-1 5 5 1 8-4 12-9 10-9 8-7 14-14 10-13v-5zm2 11m119 0-9 9-11 9-7 8-15 10-6 5-2 4 1 4 2 2h7l12-6 10-9 9-13 8-15 2-5z" fill="#B15962"/>
    <path transform="translate(275,368)" d="m0 0h61v3l-6 3-4 4-1 3v13l25 93 15 55 6 12 8 7 10 5v3h-59l-1-4 6-3 4-5 1-2v-13l-9-38v-4l-61 1-10 40v10l3 8 7 5 3 1-1 4h-42l-1-2 1-2 12-6 6-8 5-16 22-86 13-50 1-5v-9l-3-7-4-4-7-4zm22 20-22 91-3 12v3h56l-4-16-22-79-3-11z" fill="#B25A63"/>
    <path transform="translate(557,368)" d="m0 0h61v3l-6 3-4 5-1 3v11l25 93 15 55 4 10 8 9 12 6v3h-58l-1-4 7-4 3-5 1-9-7-31-3-13v-3h-61l-4 18-6 25v7l4 10 7 4 2 1v4h-43v-4l12-6 6-8 4-11 23-90 14-54v-13l-5-8-9-5zm23 20-2 6-24 98v2h56l-2-10-24-86-3-10z" fill="#B25A63"/>
    <path transform="translate(744,367)" d="m0 0h27l14 4 12 6 9 7 6 2 3-11 1-7h3v79l-5-1-4-29-4-15-7-11-8-8-14-7-11-3h-17l-9 3-10 6-8 9-8 16-5 16-3 17-1 10v36l3 24 5 18 8 16 9 10 9 6 10 3h15l12-4 10-6 10-9 11-15 9-17 3-7h1v29l-10 13-7 7-9 6-10 5-10 3-7 1h-23l-16-4-14-7-10-8-8-10-7-12-5-13-4-17-2-17v-26l3-21 6-20 9-17 8-10 9-8 10-6 15-5z" fill="#B05760"/>
    <path transform="translate(396,368)" d="m0 0h61v3l-8 4-5 5-3 6-1 4-1 173 42-1 6-4 6-8 4-11 3-18 1-12h3v60h-107v-4l9-5 4-5 3-8v-158l-4-10-6-5-7-4z" fill="#B15961"/>
    <path transform="translate(797,628)" d="m0 0h6l1 3-9 2-11 7-17 16-9 9-6 7 8-6 15-11 10-6 5-2h9l3 5-2 10-7 13-11 12-8 8-12 9-12 7-9 3-10 1-5-2-2-2v-4l3 1v2h9l8-4 11-9 30-30 8-10 2-6-6 1-11 6-14 10-16 13-13 12-14 14-7 8-14 15-9 11-11 13-12 16-8 11h-2v-8l8-16 11-15 8-10 11-13 9-10 5-6-19 9-13 3h-9l-5-2-3-4 1-8 6-8 11-10 13-7 11-10 8-7 13-14 6-7 10-8 7-1 1 3-7 8-9 7-10 7-4 8-5 22-6 12-6 7 11-6 12-9 21-21 5-6 8-7 11-10 16-11zm-83 31-14 14-9 7-7 8-14 9-6 7v5l3 2 9-1 8-4 10-9 7-8 9-16 5-12z" fill="#B15861"/>
    <path transform="translate(628,590)" d="m0 0 6 1 2 3-1 7-6 10 4 9v15l-5 13-7 11-14 15-10 9-17 12-2 2 4 8 7 3 11-1 14-7 3 1-9 8-12 6-4 1h-10l-8-3-6-7-1-4-18 8-15 4-7 1h-11l-10-3-5-4-2-4v-11l3-8 9-11 11-9 2-14 4-9 7-11 11-11 15-10 14-6 17-4 20-1 9-6zm-1 3-9 5-3 4 12 6 5-8 1-5-1-2zm-35 10-15 4-16 8-11 8-9 9-9 14-3 9v6l16-8 21-10 15-6 10-15 11-13 5-6zm20 1-9 10-9 13-2 5 6-2 11-7 10-8 4-3v-3l-6-4zm12 10-9 8-16 10-10 5-6 16-5 18-1 6v14l5-2 13-10 13-12 11-14 8-16 2-13-2-8-1-2zm-33 18m-15 10-18 8-17 10-10 8-1 2 4 5 7 3h9l3-1v2h-16l-8-4-3-2-7 7-5 8-2 6v8l3 5 5 3h12l16-4 17-7 1-5v-10l3-15 8-23 1-4z" fill="#B15962"/>
    <path transform="translate(592,275)" d="m0 0h2l7 44 3 5 2-2 7-17 2 3 1 18 6-4 14-18 4-4-1 7-10 36-2 2h-7l-16-3h-22l-16 3h-7l-3-6-10-36 1-3 10 13 7 9v2l6 2 1-17 2-4 8 19 3-3 2-7z" fill="#B15861"/>
    <path transform="translate(852,646)" d="m0 0h8l3 2v7l-1 3 11-8 6-2h5l-6 7-12 11-21 21-9 11-6 9v3l6-1 15-10 13-11 9-8h3v3l-8 7-13 11-14 10-11 4-6-2-2-2v-8l3-7-12 10-12 7-9 2-5-3-1-2v-7l4-10 7-11 14-14 14-10 17-9zm5 3-9 4-11 7-10 9-8 7-10 9-9 11-6 9-1 5 5 1 8-4 12-9 10-9 8-7 14-14 10-13v-5z" fill="#B15861"/>
    <path transform="translate(379,622)" d="m0 0 6 2 1 2v6l-4 3-6-1-3-5 2-5z" fill="#B15861"/>
    <path transform="translate(639,288)" d="m0 0h5l2 3-1 5-1 1h-5l-2-2v-5z" fill="#B25B63"/>
    <path transform="translate(542,288)" d="m0 0h5l2 2v5l-2 2h-5l-2-3 1-5z" fill="#B25B63"/>
    <path transform="translate(590,261)" d="m0 0h6l2 2-1 5-2 2-5-1-1-1z" fill="#B25B63"/>
    <path transform="translate(570,295)" d="m0 0 5 1v5l-5 1-2-2 1-4z" fill="#B25A63"/>
    <path transform="translate(612,296)" d="m0 0 5 1 1 4-5 2-2-2z" fill="#B0565F"/>
    <path transform="translate(222,647)" d="m0 0" fill="#fff"/>
</svg>